<?xml version="1.0" encoding="UTF-8"?>
<svg width="361px" height="361px" viewBox="0 0 361 361" version="1.1" xmlns="http://www.w3.org/2000/svg" xmlns:xlink="http://www.w3.org/1999/xlink">
    <title>chart.background</title>
    <defs>
        <radialGradient cx="94.3197274%" cy="3.36438498%" fx="94.3197274%" fy="3.36438498%" r="132.280653%" gradientTransform="translate(0.943197,0.033644),scale(1.000000,0.974355),rotate(133.039874),translate(-0.943197,-0.033644)" id="radialGradient-1">
            <stop stop-color="#2116A6" offset="0%"></stop>
            <stop stop-color="#300862" offset="26.6645337%"></stop>
            <stop stop-color="#891E20" offset="68.3812974%"></stop>
            <stop stop-color="#FF4A00" offset="91.0062011%"></stop>
            <stop stop-color="#F0AA78" offset="100%"></stop>
        </radialGradient>
        <radialGradient cx="94.3197274%" cy="3.36438498%" fx="94.3197274%" fy="3.36438498%" r="212.842001%" gradientTransform="translate(0.943197,0.033644),scale(0.578666,1.000000),rotate(142.370781),translate(-0.943197,-0.033644)" id="radialGradient-2">
            <stop stop-color="#2116A6" offset="0%"></stop>
            <stop stop-color="#300862" offset="26.6645337%"></stop>
            <stop stop-color="#891E20" offset="68.3812974%"></stop>
            <stop stop-color="#FF4A00" offset="91.0062011%"></stop>
            <stop stop-color="#F0AA78" offset="100%"></stop>
        </radialGradient>
    </defs>
    <g id="chart.background" stroke="none" stroke-width="1" fill="none" fill-rule="evenodd">
        <rect fill="#E77E3A" x="0" y="0" width="361" height="361"></rect>
        <g id="Logo" transform="translate(180.500000, 170.000000) rotate(19.000000) translate(-180.500000, -170.000000) translate(16.000000, 6.000000)">
            <path d="M328.989863,158.50229 C318.06482,155.806873 302.820655,152.364667 291.928666,150.220291 L290.507259,149.94045 L290.50726,148.491758 L290.507259,32.6906593 L165.05387,0.300123281 L39.6004803,32.6906593 L39.6004803,149.94045 L38.1772388,150.219083 C27.0457536,152.398337 11.5041358,155.751133 0.338208945,158.505981 C8.27644025,190.982189 15.7296489,220.831672 21.3251919,243.732319 C28.04831,242.094476 39.1525634,239.687649 45.8505076,238.283612 L47.1786726,238.0052 L47.7868375,239.218324 C54.5272313,249.709081 60.964276,258.780342 73.2721445,270.365793 C84.0403404,280.501944 96.8737253,290.394567 110.811273,299.558411 C122.743952,307.404067 135.072635,314.426813 145.835361,319.663011 C155.253569,324.245084 162.645723,327.00852 165.05387,327.00852 C167.459342,327.00852 174.83956,324.250624 184.244769,319.676441 C194.990897,314.450109 207.303615,307.439292 219.224526,299.605699 C233.146592,290.457086 245.971137,280.579355 256.738526,270.457108 C269.044998,258.887994 275.467621,249.806012 282.310797,239.216037 L282.920763,238.0052 L284.247423,238.284771 C290.727681,239.650375 301.556242,242.147856 308.060245,243.732319 C313.655788,220.831672 321.051632,190.978498 328.989863,158.50229 Z" id="Path" fill="#F4F3E5"></path>
            <path d="M53.2792876,236.63242 C59.2962537,247.154737 68.3613299,257.746958 79.925426,268.213408 C90.0106652,277.341372 101.801413,286.188551 114.451415,294.340394 C125.306546,301.335597 136.434694,307.572266 146.119014,312.215254 C155.218622,316.577911 162.107973,319.112519 165.337277,319.112519 C167.882365,319.112519 172.450491,317.618738 178.697968,314.90051 C184.98125,312.166703 192.548591,308.34701 200.450424,303.876511 C219.537697,293.077797 238.196626,279.941066 252.898961,266.237993 C263.569888,256.292329 271.953299,246.254722 277.591428,236.284664 L277.262853,236.858285 C279.173139,237.23466 281.084156,237.620567 282.99594,238.016006 C277.230864,248.686228 268.305655,259.583039 256.738526,270.457108 C245.971137,280.579355 233.146592,290.457086 219.224526,299.605699 C207.303615,307.439292 194.990897,314.450109 184.244769,319.676441 C174.83956,324.250624 167.459342,327.00852 165.05387,327.00852 C162.645723,327.00852 155.253569,324.245084 145.835361,319.663011 C135.072635,314.426813 122.743952,307.404067 110.811273,299.558411 C96.8737253,290.394567 84.0403404,280.501944 73.2721445,270.365793 C61.7031085,259.475808 52.7858921,248.5647 47.0396167,237.884079 C48.5383491,237.573561 50.0356559,237.271276 51.5325121,236.974843 Z M62.8979693,234.835022 C132.178147,222.469063 200.586957,222.675211 269.896187,235.453465 C264.690014,243.889753 257.313204,252.490725 248.094345,261.083012 C233.834601,274.373575 215.617737,287.199073 196.980471,297.743194 C189.283396,302.09785 181.933444,305.807813 175.886521,308.438782 C173.095803,309.653002 170.664998,310.600106 168.731913,311.232227 C167.818112,311.531041 167.033409,311.753439 166.399424,311.895955 C165.876585,312.013485 165.502481,312.065665 165.337277,312.065665 C165.090693,312.065665 164.498732,311.965387 163.673177,311.748504 C162.701511,311.493235 161.489844,311.10111 160.079677,310.582307 C157.100927,309.486418 153.362486,307.873134 149.165481,305.860949 C139.749134,301.346436 128.87816,295.253897 118.268579,288.416931 C105.923479,280.461571 94.4350556,271.841241 84.6541728,262.988744 C74.3906733,253.69944 66.245313,244.375125 60.6454767,235.241961 Z M204.012405,249.645176 C200.356849,249.645176 200.356849,249.645176 198.066622,253.829246 C196.084694,257.352673 196.084694,257.352673 196.084694,261.316529 C196.084694,265.324427 196.084694,265.324427 197.89045,267.658698 C199.872378,270.301268 199.872378,270.301268 203.748148,270.301268 C207.535832,270.301268 207.535832,270.301268 209.82606,267.086141 C211.807988,264.267399 211.807988,264.267399 211.807988,260.303544 C211.807988,253.609032 211.807988,253.609032 206.87519,250.658161 C205.157519,249.645176 205.157519,249.645176 204.012405,249.645176 Z M183.840784,239.383194 C182.730904,239.383194 182.730904,239.383194 182.656913,240.073786 L182.651627,240.175965 L182.650908,241.126428 C182.639044,248.79452 182.639044,248.79452 182.431413,250.746247 C180.405443,249.028576 180.405443,249.028576 178.467558,249.028576 C175.208387,249.028576 175.208387,249.028576 173.182417,254.093503 C171.596874,258.101402 171.596874,258.101402 171.596874,261.977172 C171.596874,265.280385 171.596874,265.280385 173.226459,267.306355 C174.988173,269.55254 174.988173,269.55254 178.2033,269.55254 C180.3614,269.55254 180.3614,269.55254 182.431413,267.658698 C182.519499,268.671683 182.519499,268.671683 183.31227,269.442433 C184.105041,270.213183 184.105041,270.213183 185.118026,270.213183 C186.086969,270.213183 186.086969,270.213183 186.835697,268.979983 C185.910798,266.865927 185.910798,266.865927 185.910798,262.637814 C185.910798,261.933129 185.910798,261.933129 186.197076,255.238617 C186.483355,248.544105 186.483355,248.544105 186.615483,247.178777 C186.703569,246.782391 186.703569,246.782391 187.055911,244.712378 C187.320169,243.170878 187.320169,243.170878 187.320169,242.201936 C187.320169,240.792565 187.320169,240.792565 186.285162,240.08788 C185.250155,239.383194 185.250155,239.383194 183.840784,239.383194 Z M130.152561,238.590423 C126.364877,238.590423 126.364877,238.590423 123.810392,241.937679 C121.432079,244.976635 121.432079,244.976635 121.432079,248.852405 C121.432079,251.935404 121.432079,251.935404 123.237835,254.313717 C124.603163,256.119474 124.603163,256.119474 127.598076,258.145444 C129.932347,259.642901 129.932347,259.642901 132.266617,261.140358 C135.613873,263.562714 135.613873,263.562714 135.613873,264.928042 C135.613873,266.557627 135.613873,266.557627 132.046403,266.557627 C128.038505,266.557627 128.038505,266.557627 126.497005,265.67677 C126.364877,265.544642 126.364877,265.544642 124.647206,264.091228 C123.634221,263.122285 123.634221,263.122285 122.445064,263.122285 C121.652293,263.122285 121.652293,263.122285 121.079736,263.694842 C120.507179,264.267399 120.507179,264.267399 120.507179,265.06017 C120.507179,267.174227 120.507179,267.174227 125.131677,268.759769 C128.875319,269.992969 128.875319,269.992969 131.650018,269.992969 C134.688974,269.992969 134.688974,269.992969 137.155373,268.803812 C140.282414,267.350398 140.282414,267.350398 140.282414,264.663785 C140.282414,262.197386 140.282414,262.197386 136.538773,259.510772 C133.015346,257.176502 133.015346,257.176502 129.535961,254.842231 C125.748277,251.847318 125.748277,251.847318 125.748277,248.676234 C125.748277,246.430049 125.748277,246.430049 127.245734,244.558228 C128.74319,242.686407 128.74319,242.686407 130.945332,242.686407 C134.909188,242.686407 134.909188,242.686407 134.909188,248.632191 C134.909188,249.204748 134.909188,249.204748 134.644931,250.32784 C134.380674,251.450933 134.380674,251.450933 134.380674,252.02349 C134.380674,252.816261 134.380674,252.816261 135.107381,253.542968 C135.834088,254.269674 135.834088,254.269674 136.626859,254.269674 C138.03623,254.269674 138.03623,254.269674 138.696872,252.772218 C139.225386,251.671147 139.225386,251.671147 139.225386,250.085605 C139.225386,249.733262 139.225386,249.733262 139.049215,249.028576 C138.652829,246.60622 138.652829,246.60622 138.520701,245.373021 C137.904101,242.157893 137.904101,242.157893 135.657916,240.374158 C133.411731,238.590423 133.411731,238.590423 130.152561,238.590423 Z M157.811465,250.17369 C156.930608,250.17369 156.930608,250.17369 155.609323,251.142633 C155.653366,252.904346 155.653366,252.904346 155.521237,256.031388 C155.433152,259.554815 155.433152,259.554815 155.433152,260.964186 C155.433152,265.06017 155.433152,265.06017 156.710394,266.90997 C157.371037,267.878912 157.371037,267.878912 159.000622,268.561576 C160.630207,269.24424 160.630207,269.24424 161.907449,269.24424 C163.492992,269.24424 163.492992,269.24424 165.16662,268.143169 C165.651091,269.86084 165.651091,269.86084 167.412804,269.86084 C169.130475,269.86084 169.130475,269.86084 169.130475,268.847855 C169.130475,267.658698 169.130475,267.658698 169.020368,265.21432 C168.910261,262.769943 168.910261,262.769943 168.910261,261.536743 C168.910261,260.127372 168.910261,260.127372 169.240582,257.374695 C169.570904,254.622017 169.570904,254.622017 169.570904,253.256689 C169.570904,252.243704 169.570904,252.243704 168.712068,251.583061 C167.853233,250.922418 167.853233,250.922418 166.796205,250.922418 C165.783219,250.922418 165.783219,250.922418 164.682148,251.935404 C165.151939,253.266476 165.151939,253.266476 165.204138,254.214757 L165.210662,254.445846 L165.210662,259.730987 C165.210662,262.1093 165.210662,262.1093 164.594063,263.782928 C163.669163,266.205284 163.669163,266.205284 161.775321,266.205284 C160.806378,266.205284 160.806378,266.205284 160.101693,264.883999 C159.600706,263.882024 159.600706,263.882024 159.538082,262.94749 L159.529136,262.681857 L159.529136,256.471816 C159.529136,255.767131 159.529136,255.767131 159.727329,254.35776 C159.925522,252.948389 159.925522,252.948389 159.925522,252.243704 C159.925522,250.17369 159.925522,250.17369 157.811465,250.17369 Z M191.284024,250.17369 C190.050825,250.17369 190.050825,250.17369 190.050825,250.966461 C190.050825,251.186676 190.050825,251.186676 190.094867,251.40689 C189.742525,254.35776 189.742525,254.35776 189.742525,258.718001 C189.742525,261.316529 189.742525,261.316529 190.182953,266.469541 C190.44721,269.24424 190.44721,269.24424 193.221909,269.24424 C194.01468,269.24424 194.01468,269.24424 194.675323,268.231255 C194.231224,266.575978 194.231224,266.575978 194.194216,265.734882 L194.190852,265.588684 L194.190852,256.515859 C194.190852,255.811174 194.190852,255.811174 194.469246,254.584499 L194.617143,253.95485 C194.895537,252.728175 194.895537,252.728175 194.895537,252.02349 C194.895537,251.09859 194.895537,251.09859 193.486166,250.614119 C192.385095,250.17369 192.385095,250.17369 191.284024,250.17369 Z M148.12204,244.007692 C147.50544,244.007692 147.50544,244.007692 146.822776,244.470142 C146.140112,244.932592 146.140112,244.932592 146.140112,245.505149 C146.140112,245.798768 146.140112,245.798768 146.323624,246.184143 L146.404369,246.341963 L146.404369,249.55709 C146.448412,251.71519 146.448412,251.71519 145.523513,251.71519 C145.457448,251.71519 145.457448,251.71519 145.341836,251.690416 L145.259256,251.671147 L144.994998,251.671147 C143.585628,251.671147 143.585628,251.671147 142.440514,253.300732 C142.352428,253.520946 142.352428,253.520946 142.352428,253.697117 C142.352428,254.35776 142.352428,254.35776 143.497542,254.710103 C143.786573,254.792683 143.786573,254.792683 145.585276,255.068811 L145.831812,255.106488 L145.831812,264.443571 C145.831812,265.808899 145.831812,265.808899 146.404369,267.262312 C147.153098,269.156155 147.153098,269.156155 148.254169,269.156155 C148.958854,269.156155 148.958854,269.156155 149.66354,268.605619 C150.368225,268.055084 150.368225,268.055084 150.368225,267.350398 C150.368225,266.513584 150.368225,266.513584 150.081947,264.795913 C149.821693,263.234394 149.821693,263.234394 149.798034,262.364457 L149.795668,262.197386 L149.795668,259.290558 C149.795668,255.855217 149.795668,255.855217 149.883754,254.886274 C153.53931,254.401803 153.53931,254.401803 153.53931,253.212646 C153.53931,251.518691 153.53931,251.518691 150.363143,251.127778 L150.103968,251.09859 L150.103968,250.922418 C150.059925,249.821347 150.059925,249.821347 150.390246,248.786341 C150.720568,247.751334 150.720568,247.751334 150.720568,246.694306 C150.720568,245.725363 150.720568,245.725363 149.883754,244.866528 C149.04694,244.007692 149.04694,244.007692 148.12204,244.007692 Z M204.673048,253.476903 C207.932218,253.476903 207.932218,253.476903 207.932218,260.215458 C207.932218,262.813986 207.932218,262.813986 207.095404,264.663785 C205.994333,267.086141 205.994333,267.086141 203.748148,267.086141 C200.268764,267.086141 200.268764,267.086141 200.268764,261.228443 C200.268764,258.497787 200.268764,258.497787 201.149621,256.339688 C202.338777,253.476903 202.338777,253.476903 204.673048,253.476903 Z M179.348414,252.904346 C180.713742,252.904346 180.713742,252.904346 181.550556,254.401803 C182.211199,255.635002 182.211199,255.635002 182.211199,257.132459 C182.211199,260.347586 182.211199,260.347586 181.462471,262.813986 C180.3614,266.469541 180.3614,266.469541 177.895001,266.469541 C175.516687,266.469541 175.516687,266.469541 175.516687,262.373557 C175.516687,259.642901 175.516687,259.642901 176.309458,256.824159 C177.366486,252.904346 177.366486,252.904346 179.348414,252.904346 Z M192.252967,243.126836 C191.239981,243.126836 191.239981,243.126836 190.557317,243.743435 C189.874653,244.360035 189.874653,244.360035 189.874653,245.328978 C189.874653,246.474092 189.874653,246.474092 190.865617,247.266863 C191.856581,248.059634 191.856581,248.059634 193.001695,248.059634 C193.970637,248.059634 193.970637,248.059634 194.63128,247.443034 C195.291923,246.826434 195.291923,246.826434 195.291923,245.857492 C195.291923,244.668335 195.291923,244.668335 194.367023,243.897585 C193.442123,243.126836 193.442123,243.126836 192.252967,243.126836 Z M5.52770078,161.480366 C112.101545,135.289608 217.283892,135.289608 323.857736,161.480366 C316.063867,193.366015 310.705864,215.289171 305.562556,236.338526 L305.181929,237.896276 L305.181929,237.896276 L304.991848,238.674209 C210.751986,215.817059 118.633451,215.817059 24.3935896,238.674209 C24.3302507,238.414985 24.2668916,238.15568 24.2035081,237.896276 L23.8228815,236.338526 C18.679573,215.289171 13.3215704,193.366015 5.52770078,161.480366 Z M33.4448931,174.088718 C31.8843898,173.780679 30.0921743,173.847902 28.0681929,174.290389 L28.0681929,174.290389 L18.8364055,176.308662 L28.4807699,220.422975 L37.0929742,218.540156 C41.2235485,217.637121 44.0027409,215.947545 45.4306347,213.471377 C46.8585286,210.995209 47.1480448,207.815803 46.299192,203.933063 L46.299192,203.933063 L45.7573738,201.454731 C45.2516742,199.141609 44.4964786,197.369962 43.4917643,196.139735 C42.48705,194.909509 41.1644513,194.105855 39.5239287,193.72875 C40.1358228,193.162177 40.6583249,192.582694 41.0914505,191.990283 C41.5245762,191.397872 41.8592822,190.751247 42.0955786,190.050388 C42.3318751,189.349529 42.4526559,188.565735 42.4579248,187.698984 C42.4631937,186.832232 42.33489,185.799939 42.0730098,184.602072 L42.0730098,184.602072 L41.720828,182.991156 C41.4047658,181.545455 40.9037967,180.194301 40.2179059,178.937652 C39.532015,177.681004 38.6218406,176.635708 37.4873556,175.801732 C36.3528705,174.967756 35.0053965,174.396757 33.4448931,174.088718 Z M285.867936,171.093897 L277.507573,215.469461 L283.864746,216.667154 L288.890358,189.991955 L289.015009,190.015439 L293.712133,218.522403 L299.695355,219.649643 L308.055718,175.274079 L301.698545,174.076386 L296.661191,200.81391 L296.536541,200.790426 L291.975809,172.244621 L285.867936,171.093897 Z M51.6966018,169.547355 L45.3523004,170.81146 L54.1762512,215.097172 L60.5205526,213.833067 L51.6966018,169.547355 Z M273.047317,168.718767 L265.217559,213.19102 L271.588584,214.312698 L279.418342,169.840446 L273.047317,168.718767 Z M253.933982,165.440557 L236.000587,208.09226 L242.367032,209.23965 L245.9606,200.02745 L254.636442,201.59105 L254.787841,211.478185 L261.154286,212.625575 L259.239352,166.396715 L253.933982,165.440557 Z M72.7636671,165.449094 C71.3743243,165.222215 70.0180913,165.23212 68.6949274,165.478811 C67.3717635,165.725502 66.1030495,166.204992 64.8887472,166.917295 C63.6744449,167.629598 62.6299775,168.542137 61.7553135,169.654939 C60.8806495,170.767742 60.254487,172.088193 59.8768072,173.616333 C59.4991274,175.144473 59.4813501,176.826355 59.8234747,178.662029 L59.8234747,178.662029 L64.3108546,202.739127 C64.6609356,204.617492 65.2853784,206.190681 66.1842015,207.458743 C67.0830247,208.726805 68.1408147,209.722257 69.3576033,210.445129 C70.574392,211.168001 71.8774381,211.642869 73.2667809,211.869749 C74.6561237,212.096628 76.0123567,212.086722 77.3355206,211.840032 C78.6586845,211.593341 79.9273985,211.113851 81.1417008,210.401548 C82.3560031,209.689245 83.4004705,208.776706 84.2751345,207.663904 C85.1497985,206.551101 85.7779501,205.241322 86.1596081,203.734527 C86.5412661,202.227732 86.5570543,200.535178 86.2069733,198.656814 L86.2069733,198.656814 L83.5336406,184.313011 L71.8172964,186.497406 L72.8914033,192.260542 L78.0773261,191.293678 L79.6765519,199.874346 C79.9709383,201.45388 79.7502554,202.698733 79.0144967,203.608944 C78.278738,204.519155 77.3133152,205.085661 76.1181995,205.308479 C74.9230837,205.531296 73.8184262,205.350736 72.804194,204.766793 C71.7899618,204.182851 71.1356623,203.101129 70.841276,201.521595 L70.841276,201.521595 L66.3538961,177.444497 C66.0595097,175.864963 66.2801926,174.620109 67.0159513,173.709898 C67.75171,172.799687 68.7171328,172.233182 69.9122485,172.010364 C71.1073643,171.787547 72.2120218,171.968107 73.226254,172.552049 C74.2404862,173.135992 74.8947857,174.217714 75.189172,175.797248 L75.189172,175.797248 L75.6188148,178.102502 L82.1492362,176.88497 L81.7195934,174.579716 C81.3774688,172.744041 80.7550151,171.181524 79.8522137,169.892117 C78.9494124,168.60271 77.8896333,167.596586 76.6728447,166.873714 C75.456056,166.150842 74.1530099,165.675973 72.7636671,165.449094 Z M224.201348,161.373599 L223.494959,167.420965 L230.928179,168.289235 L226.395514,207.093165 L232.820839,207.843703 L237.353505,169.039774 L244.786725,169.908044 L245.493115,163.860679 L224.201348,161.373599 Z M128.895784,158.531497 L122.646137,159.135294 L116.738836,183.727323 L116.612581,183.739521 L106.043537,160.73932 L99.8570167,161.337018 L104.199476,206.283981 L110.638507,205.661887 L107.997658,178.327568 L108.123913,178.31537 L116.30297,197.022568 L119.522486,196.711521 L124.032108,176.778433 L124.158363,176.766235 L126.799213,204.100553 L133.238244,203.478459 L128.895784,158.531497 Z M197.10886,158.644708 L193.515866,203.657781 L199.964368,204.172508 L202.124202,177.114088 L202.250643,177.12418 L209.953224,204.96983 L216.022402,205.454279 L219.615397,160.441205 L213.166895,159.926479 L211.002015,187.04812 L210.875573,187.038027 L203.30448,159.13925 L197.10886,158.644708 Z M151.733544,157.837372 C150.417921,157.452058 149.105997,157.299504 147.797731,157.379706 C146.489466,157.459908 145.205999,157.77157 143.947294,158.314702 C142.688588,158.857834 141.570089,159.614754 140.591761,160.585485 C139.613433,161.556216 138.850453,162.757302 138.302798,164.188779 C137.755143,165.620256 137.536943,167.243316 137.648191,169.058007 L137.648191,169.058007 L139.107346,193.565164 C139.221182,195.422057 139.63665,197.01686 140.353765,198.349621 C141.07088,199.682382 141.974211,200.770726 143.063787,201.614686 C144.153363,202.458646 145.355944,203.073274 146.671568,203.458588 C147.987191,203.843903 149.299116,203.996457 150.607381,203.916255 C151.915646,203.836052 153.199113,203.52439 154.457818,202.981258 C155.716524,202.438126 156.835024,201.681206 157.813351,200.710475 C158.791679,199.739744 159.555305,198.549209 160.104254,197.138833 C160.653203,195.728456 160.870756,194.094846 160.756921,192.237954 L160.756921,192.237954 L159.297766,167.730797 C159.186518,165.916106 158.771696,164.331853 158.053287,162.977991 C157.334879,161.624129 156.430901,160.525234 155.341325,159.681275 C154.251749,158.837315 153.049168,158.222687 151.733544,157.837372 Z M167.041704,157.687101 L166.999715,193.230693 C166.99794,194.733147 167.275345,196.128591 167.831937,197.417068 C168.388529,198.705545 169.149226,199.833269 170.11405,200.800273 C171.078875,201.767277 172.204918,202.530556 173.492213,203.090131 C174.779507,203.649707 176.152975,203.930352 177.612656,203.932076 C179.072337,203.9338 180.446464,203.6564 181.735078,203.099867 C183.023691,202.543334 184.151534,201.782717 185.118641,200.817995 C186.085747,199.853272 186.849106,198.727349 187.408741,197.44019 C187.968376,196.153032 188.249077,194.758246 188.250852,193.255792 L188.250852,193.255792 L188.292841,157.712201 L181.724308,157.704443 L181.683079,192.604129 C181.681152,194.235364 181.293352,195.436853 180.519666,196.208631 C179.745981,196.980409 178.779574,197.365608 177.620415,197.364239 C176.461256,197.36287 175.495762,196.975389 174.723902,196.201786 C173.952042,195.428183 173.567082,194.225781 173.569009,192.594545 L173.569009,192.594545 L173.610237,157.694859 L167.041704,157.687101 Z M165.05387,0.300123281 L290.507259,32.6906593 L290.507252,149.871646 C288.952694,149.570566 287.398363,149.275053 285.84425,148.985105 L285.844561,38.1349141 L165.382686,7.17770545 L44.9190715,38.1349041 L44.919155,148.729468 C43.1464432,149.056474 41.3734512,149.390722 39.6001666,149.732213 L39.6004803,32.6906593 L165.05387,0.300123281 Z M165.382673,14.4344582 L278.797007,43.5805363 L278.796735,147.708155 C275.926649,147.203559 273.057264,146.717962 270.188526,146.251361 C255.514025,120.849853 249.473118,109.81468 233.93335,91.5542902 C230.332407,95.2703265 229.932498,99.586886 230.175614,100.677215 C230.418731,101.767545 220.873766,108.023121 220.873766,108.023121 C220.873766,108.023121 216.243778,101.31744 211.144232,94.2782327 L210.605883,93.5363069 C210.515929,93.4125391 210.425876,93.2887374 210.335745,93.1649362 L209.523093,92.0516705 C209.432702,91.9281824 209.342301,91.8047982 209.251913,91.6815522 L208.709916,90.9440096 C205.641502,86.7771193 202.639748,82.8495423 200.587634,80.5136581 C198.113025,77.6968566 194.014955,72.1065767 190.040643,66.4905751 L189.460123,65.6688565 L189.460123,65.6688565 L188.882586,64.8486844 C183.605895,57.3433751 178.858658,50.2741841 178.858658,50.2741841 L178.858658,50.2741841 L166.089758,33.7149108 L145.564032,71.8144708 L142.688915,79.1134809 L135.238628,88.9934397 L121.479645,74.9012251 C89.8996604,102.82082 64.415035,137.975044 58.5102188,146.367203 C56.3304671,146.720234 54.1486984,147.088309 51.9665297,147.467366 L51.9666252,43.5805463 L165.382673,14.4344582 Z M91.3543418,118.552923 C91.6801883,118.550646 91.275324,123.227607 90.9828441,126.221096 L90.9325682,126.730588 C90.8187808,127.872584 90.7324568,128.665687 90.7324568,128.665687 L90.7324568,128.665687 L95.4239002,123.21404 L91.7664276,141.767331 C81.2059011,142.957004 70.6392867,144.404865 60.0639421,146.110913 C74.2829632,135.395581 84.3073804,125.490013 88.7681737,121.032674 L89.6340495,120.166959 C90.6749545,119.127063 91.2588569,118.553593 91.3543418,118.552923 Z M167.92194,48.7986385 L176.108623,61.5643693 L198.706124,85.5382176 L217.70092,112.625618 C215.76832,124.012945 224.990891,139.977645 224.990891,139.977645 C227.712766,133.763076 225.246067,127.25029 225.008833,126.653372 L224.990891,126.608967 C227.067952,128.761153 230.142142,132.529573 230.142142,132.529573 C229.701713,131.270083 230.332407,127.654075 230.332407,127.654075 L230.332407,127.654075 L241.064766,136.423607 L249.869811,136.539172 L241.529859,128.476428 L247.310041,130.781026 C246.523581,129.924351 245.716085,129.024807 244.911352,128.114274 L244.188482,127.292688 C244.028296,127.109837 243.868505,126.926929 243.709301,126.744218 L243.23364,126.196937 C239.445471,121.827518 236.104804,117.719092 235.843611,117.397409 L235.827192,117.377176 L233.297371,106.832301 L235.827192,103.601509 C248.70445,128.486322 262.269112,141.166612 268.221062,145.935477 C233.944764,140.462528 199.759877,137.703331 165.575766,137.656619 L166.942427,126.126609 L170.360151,121.408548 L173.614036,135.286381 L185.762814,113.17162 L192.56479,127.927077 L189.698482,107.907557 C189.698482,107.907557 196.593829,110.205455 200.145444,113.248663 C201.483065,114.394807 203.851734,116.814087 206.285084,119.384943 L206.789141,119.918639 L206.789141,119.918639 L207.293142,120.454453 L207.293142,120.454453 L207.795186,120.990178 C211.298198,124.734793 214.517504,128.310618 214.517504,128.310618 L214.517504,128.310618 L208.511822,113.548462 L186.363558,93.6696298 L186.023547,103.601509 L180.29974,110.141811 L179.166958,100.762633 L173.233506,102.79088 L172.645094,86.5464792 L167.115075,90.3785433 L160.519219,78.689743 L165.62995,55.9603106 L167.92194,48.7986385 Z M136.276278,110.280824 L141.263689,114.759381 L141.078709,121.800464 L135.776077,138.302909 C122.009904,138.918748 108.239618,139.974294 94.459347,141.469548 C95.1535144,140.543806 95.9137975,139.256297 96.6852872,137.468715 C99.4229902,131.129396 105.345871,124.046442 105.782776,123.862208 C105.992574,123.774096 107.235164,125.371602 108.474672,127.06255 L108.811865,127.524838 C110.04225,129.219617 111.175382,130.863094 111.175382,130.863094 L111.175382,130.863094 L114.34999,124.341216 C114.34999,124.341216 117.041888,136.418582 117.36252,137.137094 C117.517492,137.485994 118.401741,134.749775 119.274096,131.829211 L119.454171,131.223278 C120.32136,128.291084 121.12554,125.3746 121.12554,125.3746 L121.12554,125.3746 L125.651383,138.522198 C125.586199,124.620916 132.502687,116.266749 132.502687,116.266749 L132.502687,116.266749 L138.68454,119.651627 L136.276278,110.280824 Z M161.47583,121.653077 L163.921088,129.759366 L163.920915,137.656476 C155.362764,137.666698 146.80457,137.846931 138.244922,138.197175 L142.843946,129.009032 L149.1914,135.283032 L161.47583,121.653077 Z" id="Combined-Shape" fill="url(#radialGradient-1)" fill-rule="nonzero"></path>
            <path d="M32.7294139,197.685429 C33.8859747,197.432579 34.8469457,197.373967 35.6123558,197.509591 C36.3777658,197.645216 37.0176184,197.948943 37.5319327,198.420782 C38.0462469,198.892621 38.45566,199.528043 38.7601843,200.327067 C39.0647085,201.126091 39.3388762,202.083216 39.5826956,203.198471 C39.8174846,204.27242 39.9929046,205.272774 40.1089608,206.199561 C40.225017,207.126348 40.1694129,207.960811 39.9421468,208.702976 C39.7148807,209.445141 39.2804655,210.081106 38.6388881,210.610888 C37.9973108,211.140671 37.0362975,211.545527 35.7558195,211.825468 L35.7558195,211.825468 L33.0296541,212.421468 L29.9412902,198.294974 Z M147.804339,163.536473 C148.985998,163.464033 150.032022,163.770558 150.94244,164.456058 C151.852859,165.141558 152.355923,166.26503 152.451649,167.826508 L152.451649,167.826508 L153.910804,192.039315 C154.006529,193.600793 153.644463,194.777302 152.824595,195.568876 C152.004727,196.36045 151.003979,196.79245 149.82232,196.864891 C148.640661,196.937332 147.594638,196.630807 146.684219,195.945307 C145.7738,195.259807 145.270736,194.136334 145.175011,192.574856 L145.175011,192.574856 L143.715855,168.362049 C143.62013,166.800571 143.982196,165.624062 144.802064,164.832489 C145.621932,164.040915 146.62268,163.608914 147.804339,163.536473 Z M253.444118,178.233635 L253.569659,178.251763 L254.369739,194.899788 L247.967129,193.975283 L253.444118,178.233635 Z M28.6695387,180.00599 C30.7761315,179.545442 32.3404997,179.722789 33.3626901,180.538035 C34.3848804,181.353281 35.1126931,182.752221 35.5461498,184.734896 C35.9886369,186.758878 35.9635925,188.376508 35.4710159,189.587835 C34.9784393,190.799163 33.6788741,191.635088 31.5722812,192.095636 L31.5722812,192.095636 L28.7221992,192.718727 L26.0672899,180.574899 Z M122.039982,80.3106763 L133.802944,92.2406555 L130.193193,97.5331915 L127.795501,93.2170949 C127.795501,93.2170949 127.821926,107.661029 121.82153,115.829288 L119.2829,100.139263 L111.441513,105.071706 L112.116249,93.6090105 L122.039982,80.3106763" id="Fillers" fill="url(#radialGradient-2)"></path>
        </g>
    </g>
</svg>