<?xml version="1.0" encoding="UTF-8"?>
<svg width="361px" height="361px" viewBox="0 0 361 361" version="1.1" xmlns="http://www.w3.org/2000/svg" xmlns:xlink="http://www.w3.org/1999/xlink">
    <title>bms.logo</title>
    <defs>
        <path d="M343.450956,165.469424 C332.045691,162.655526 316.131453,159.062015 304.760695,156.823381 L303.276809,156.531239 L303.276809,155.018868 L303.276809,34.1276113 L172.308985,0.313315513 L41.3411608,34.1276113 L41.3411608,156.531239 L39.8553592,156.82212 C28.234578,159.097165 12.0098121,162.597337 0.353075272,165.473277 C8.64023982,199.37701 16.421062,230.538559 22.262563,254.445828 C29.2812028,252.735992 40.8735552,250.22337 47.8659145,248.757617 L49.2524604,248.466967 L49.8873578,249.733416 C56.9240326,260.685304 63.6440244,270.155302 76.4928981,282.250004 C87.7344213,292.8317 101.131911,303.159163 115.682099,312.725814 C128.139291,320.916334 141.009893,328.247772 152.245707,333.714133 C162.077902,338.497616 169.794986,341.382521 172.308985,341.382521 C174.820192,341.382521 182.524815,338.503399 192.34344,333.728153 C203.561925,328.272092 216.415862,320.953107 228.860769,312.775181 C243.394794,303.22443 256.783055,292.912513 268.023736,282.345332 C280.871152,270.267687 287.576087,260.786496 294.720062,249.731027 L295.356841,248.466967 L296.741815,248.758827 C303.50692,250.184458 314.811461,252.791718 321.601355,254.445828 C327.442856,230.538559 335.163792,199.373157 343.450956,165.469424 Z" id="path-1"></path>
        <filter x="-4.8%" y="-4.0%" width="109.6%" height="109.7%" filterUnits="objectBoundingBox" id="filter-2">
            <feOffset dx="0" dy="3" in="SourceAlpha" result="shadowOffsetOuter1"></feOffset>
            <feGaussianBlur stdDeviation="5" in="shadowOffsetOuter1" result="shadowBlurOuter1"></feGaussianBlur>
            <feColorMatrix values="0 0 0 0 0   0 0 0 0 0   0 0 0 0 0  0 0 0 0.5 0" type="matrix" in="shadowBlurOuter1"></feColorMatrix>
        </filter>
        <radialGradient cx="94.3197274%" cy="3.36438498%" fx="94.3197274%" fy="3.36438498%" r="132.280653%" gradientTransform="translate(0.943197,0.033644),scale(1.000000,0.974355),rotate(133.039874),translate(-0.943197,-0.033644)" id="radialGradient-3">
            <stop stop-color="#2116A6" offset="0%"></stop>
            <stop stop-color="#300862" offset="26.6645337%"></stop>
            <stop stop-color="#891E20" offset="68.3812974%"></stop>
            <stop stop-color="#FF4A00" offset="91.0062011%"></stop>
            <stop stop-color="#F0AA78" offset="100%"></stop>
        </radialGradient>
        <radialGradient cx="94.3197274%" cy="3.36438498%" fx="94.3197274%" fy="3.36438498%" r="212.842001%" gradientTransform="translate(0.943197,0.033644),scale(0.578666,1.000000),rotate(142.370781),translate(-0.943197,-0.033644)" id="radialGradient-4">
            <stop stop-color="#2116A6" offset="0%"></stop>
            <stop stop-color="#300862" offset="26.6645337%"></stop>
            <stop stop-color="#891E20" offset="68.3812974%"></stop>
            <stop stop-color="#FF4A00" offset="91.0062011%"></stop>
            <stop stop-color="#F0AA78" offset="100%"></stop>
        </radialGradient>
    </defs>
    <g id="bms.logo" stroke="none" stroke-width="1" fill="none" fill-rule="evenodd">
        <g id="Logo" transform="translate(8.675214, 6.675214)">
            <g id="Path">
                <use fill="black" fill-opacity="1" filter="url(#filter-2)" xlink:href="#path-1"></use>
                <use fill="#F4F3E5" fill-rule="evenodd" xlink:href="#path-1"></use>
            </g>
            <path d="M55.6220276,247.035232 C61.9034793,258.019613 71.3667317,269.076955 83.4386315,280.003008 C93.9671779,289.532202 106.276201,298.768268 119.482246,307.278433 C130.814527,314.581117 142.431824,321.091926 152.541828,325.939001 C162.041418,330.493424 169.233598,333.139443 172.60485,333.139443 C175.26181,333.139443 180.030732,331.580001 186.552824,328.74229 C193.112294,325.888316 201.012265,321.900725 209.261431,317.23372 C229.187706,305.960337 248.666807,292.246168 264.015399,277.940762 C275.155377,267.557926 283.90729,257.079106 289.793249,246.670803 L289.450172,247.269627 C291.444443,247.662548 293.439477,248.065421 295.435312,248.478246 C289.41716,259.617097 280.099519,270.993086 268.023736,282.345332 C256.783055,292.912513 243.394794,303.22443 228.860769,312.775181 C216.415862,320.953107 203.561925,328.272092 192.34344,333.728153 C182.524815,338.503399 174.820192,341.382521 172.308985,341.382521 C169.794986,341.382521 162.077902,338.497616 152.245707,333.714133 C141.009893,328.247772 128.139291,320.916334 115.682099,312.725814 C101.131911,303.159163 87.7344213,292.8317 76.4928981,282.250004 C64.4150001,270.881025 55.1056378,259.489993 49.106796,248.3396 C50.6715082,248.016435 52.2348281,247.700822 53.7976774,247.39132 Z M65.6627152,245.157441 C137.98823,232.247913 209.404075,232.463133 281.759921,245.803099 C276.325368,254.60945 268.624067,263.588852 258.999591,272.559189 C244.113045,286.433952 225.09544,299.823208 205.638953,310.830806 C197.603545,315.376876 189.930518,319.249915 183.617797,321.99653 C180.704409,323.264123 178.166756,324.252858 176.148701,324.912764 C175.194732,325.224713 174.375537,325.456887 173.713684,325.605667 C173.167863,325.728364 172.777316,325.782837 172.60485,325.782837 C172.347426,325.782837 171.729445,325.678152 170.867602,325.451735 C169.853225,325.185245 168.588298,324.775884 167.116146,324.234276 C164.006463,323.090217 160.103694,321.406019 155.722206,319.305386 C145.891953,314.592433 134.543134,308.23209 123.467198,301.094598 C110.579456,292.789552 98.5860471,283.790306 88.3752353,274.548689 C77.660702,264.851163 69.1573678,255.117086 63.3113902,245.582558 Z M212.979983,260.640568 C209.163744,260.640568 209.163744,260.640568 206.772847,265.008553 C204.703801,268.686857 204.703801,268.686857 204.703801,272.824948 C204.703801,277.009018 204.703801,277.009018 206.588932,279.445894 C208.657977,282.204621 208.657977,282.204621 212.704111,282.204621 C216.658287,282.204621 216.658287,282.204621 219.049184,278.848169 C221.118229,275.905527 221.118229,275.905527 221.118229,271.767436 C221.118229,264.77866 221.118229,264.77866 215.968605,261.698081 C214.175432,260.640568 214.175432,260.640568 212.979983,260.640568 Z M191.921698,249.92751 C190.68027,249.92751 190.68027,249.92751 190.68027,250.755129 C190.68027,259.629035 190.68027,259.629035 190.450376,261.790038 C188.335352,259.996865 188.335352,259.996865 186.312285,259.996865 C182.909855,259.996865 182.909855,259.996865 180.794831,265.284426 C179.139594,269.468496 179.139594,269.468496 179.139594,273.51463 C179.139594,276.963039 179.139594,276.963039 180.840809,279.078063 C182.679961,281.422981 182.679961,281.422981 186.036413,281.422981 C188.289373,281.422981 188.289373,281.422981 190.450376,279.445894 C190.542334,280.503406 190.542334,280.503406 191.369952,281.308035 C192.19757,282.112663 192.19757,282.112663 193.255083,282.112663 C194.266616,282.112663 194.266616,282.112663 195.048255,280.825257 C194.082701,278.618275 194.082701,278.618275 194.082701,274.204311 C194.082701,273.468651 194.082701,273.468651 194.381563,266.479875 C194.680425,259.491099 194.680425,259.491099 194.818361,258.065756 C194.910319,257.651947 194.910319,257.651947 195.278149,255.490944 C195.554022,253.881686 195.554022,253.881686 195.554022,252.870153 C195.554022,251.398832 195.554022,251.398832 194.473521,250.663171 C193.393019,249.92751 193.393019,249.92751 191.921698,249.92751 Z M135.873553,249.099892 C131.919377,249.099892 131.919377,249.099892 129.252607,252.59428 C126.769752,255.766817 126.769752,255.766817 126.769752,259.81295 C126.769752,263.031466 126.769752,263.031466 128.654883,265.51432 C129.991141,267.28163 129.991141,267.28163 132.822609,269.250995 L133.206783,269.514475 L138.080535,272.641033 C141.574923,275.169866 141.574923,275.169866 141.574923,276.595209 C141.574923,278.296424 141.574923,278.296424 137.850641,278.296424 C133.666571,278.296424 133.666571,278.296424 132.057313,277.376848 C131.919377,277.238912 131.919377,277.238912 130.126204,275.721612 C129.068692,274.710078 129.068692,274.710078 127.827265,274.710078 C126.999646,274.710078 126.999646,274.710078 126.401922,275.307802 C125.804198,275.905527 125.804198,275.905527 125.804198,276.733145 C125.804198,278.940127 125.804198,278.940127 130.631971,280.595363 C134.540168,281.882769 134.540168,281.882769 137.436832,281.882769 C140.609368,281.882769 140.609368,281.882769 143.18418,280.641342 C146.448674,279.124042 146.448674,279.124042 146.448674,276.319336 C146.448674,273.744524 146.448674,273.744524 142.540477,270.939817 C138.862174,268.502942 138.862174,268.502942 135.22985,266.066066 C131.275674,262.939508 131.275674,262.939508 131.275674,259.629035 C131.275674,257.284117 131.275674,257.284117 132.838953,255.330018 C134.402232,253.37592 134.402232,253.37592 136.701171,253.37592 C140.839262,253.37592 140.839262,253.37592 140.839262,259.583056 C140.839262,260.180781 140.839262,260.180781 140.563389,261.35324 C140.287517,262.525699 140.287517,262.525699 140.287517,263.123423 C140.287517,263.951041 140.287517,263.951041 141.046167,264.709691 C141.804817,265.468341 141.804817,265.468341 142.632435,265.468341 C144.103756,265.468341 144.103756,265.468341 144.793438,263.905063 C145.345184,262.755593 145.345184,262.755593 145.345184,261.100356 C145.345184,260.732526 145.345184,260.732526 145.161268,259.996865 C144.747459,257.468032 144.747459,257.468032 144.609523,256.180626 C143.96582,252.824174 143.96582,252.824174 141.620902,250.962033 C139.275983,249.099892 139.275983,249.099892 135.873553,249.099892 Z M164.748233,261.192314 C163.828657,261.192314 163.828657,261.192314 162.449293,262.203847 C162.495272,264.042999 162.495272,264.042999 162.357336,267.307493 C162.265378,270.985796 162.265378,270.985796 162.265378,272.457117 C162.265378,276.733145 162.265378,276.733145 163.598763,278.664254 C164.288445,279.675787 164.288445,279.675787 165.98966,280.388459 C167.690875,281.10113 167.690875,281.10113 169.02426,281.10113 C170.679497,281.10113 170.679497,281.10113 172.426691,279.95166 C172.932457,281.744833 172.932457,281.744833 174.771609,281.744833 C176.564782,281.744833 176.564782,281.744833 176.564782,280.687321 C176.564782,279.445894 176.564782,279.445894 176.449835,276.894071 C176.334888,274.342248 176.334888,274.342248 176.334888,273.054842 C176.334888,271.58352 176.334888,271.58352 176.679729,268.709846 C177.02457,265.836172 177.02457,265.836172 177.02457,264.410829 C177.02457,263.353317 177.02457,263.353317 176.127983,262.663635 C175.231397,261.973953 175.231397,261.973953 174.127906,261.973953 C173.070394,261.973953 173.070394,261.973953 171.920924,263.031466 C172.411364,264.421047 172.411364,264.421047 172.465858,265.41101 L172.47267,265.652257 L172.47267,271.169711 C172.47267,273.652566 172.47267,273.652566 171.828966,275.39976 C170.863412,277.928593 170.863412,277.928593 168.886324,277.928593 C167.874791,277.928593 167.874791,277.928593 167.13913,276.54923 C166.607819,275.486609 166.607819,275.486609 166.548785,274.496646 L166.541406,274.25029 L166.541406,267.767281 C166.541406,267.03162 166.541406,267.03162 166.74831,265.560299 C166.955215,264.088978 166.955215,264.088978 166.955215,263.353317 C166.955215,261.192314 166.955215,261.192314 164.748233,261.192314 Z M199.692113,261.192314 C198.404707,261.192314 198.404707,261.192314 198.404707,262.019932 C198.404707,262.249826 198.404707,262.249826 198.450686,262.47972 C198.082856,265.560299 198.082856,265.560299 198.082856,270.112199 C198.082856,272.824948 198.082856,272.824948 198.542643,278.204466 C198.818516,281.10113 198.818516,281.10113 201.71518,281.10113 C202.542798,281.10113 202.542798,281.10113 203.23248,280.043618 C202.765618,278.303497 202.765618,278.303497 202.729706,277.425275 L202.726713,277.28489 L202.726713,267.81326 C202.726713,266.985641 202.726713,266.985641 203.094544,265.468341 C203.462374,263.951041 203.462374,263.951041 203.462374,263.123423 C203.462374,262.157869 203.462374,262.157869 201.991053,261.652102 C200.841583,261.192314 200.841583,261.192314 199.692113,261.192314 Z M154.632899,254.755283 C153.989196,254.755283 153.989196,254.755283 153.276525,255.238061 C152.563854,255.720838 152.563854,255.720838 152.563854,256.318562 C152.563854,256.625087 152.563854,256.625087 152.755432,257.027402 L152.839726,257.192159 L152.839726,260.548611 C152.885705,262.801572 152.885705,262.801572 151.92015,262.801572 C151.851182,262.801572 151.851182,262.801572 151.730488,262.775709 L151.644278,262.755593 L151.368405,262.755593 C149.897084,262.755593 149.897084,262.755593 148.701635,264.456808 C148.609678,264.686702 148.609678,264.686702 148.609678,264.870617 C148.609678,265.560299 148.609678,265.560299 149.805126,265.928129 C150.106862,266.01434 150.106862,266.01434 151.984629,266.302605 L152.242002,266.341938 L152.242002,276.089442 C152.242002,277.514784 152.242002,277.514784 152.839726,279.032084 C153.621366,281.009172 153.621366,281.009172 154.770835,281.009172 C155.506496,281.009172 155.506496,281.009172 156.242157,280.434438 C156.977817,279.859703 156.977817,279.859703 156.977817,279.124042 C156.977817,278.250445 156.977817,278.250445 156.678955,276.457272 C156.407262,274.827115 156.407262,274.827115 156.382563,273.918939 L156.380093,273.744524 L156.381013,270.018402 C156.389289,267.022424 156.389289,267.022424 156.472051,266.112044 C160.28829,265.606278 160.28829,265.606278 160.28829,264.36485 C160.28829,262.593816 160.28829,262.593816 156.96268,262.187133 L156.701945,262.157869 L156.701945,261.973953 C156.655966,260.824484 156.655966,260.824484 157.000807,259.743982 C157.345648,258.66348 157.345648,258.66348 157.345648,257.55999 C157.345648,256.548456 157.345648,256.548456 156.472051,255.65187 C155.598454,254.755283 155.598454,254.755283 154.632899,254.755283 Z M213.669665,264.640723 C217.072096,264.640723 217.072096,264.640723 217.072096,271.675478 C217.072096,274.388227 217.072096,274.388227 216.198499,276.319336 C215.049029,278.848169 215.049029,278.848169 212.704111,278.848169 C209.071786,278.848169 209.071786,278.848169 209.071786,272.73299 C209.071786,269.882305 209.071786,269.882305 209.991362,267.629345 C211.232789,264.640723 211.232789,264.640723 213.669665,264.640723 Z M187.231861,264.042999 C188.657204,264.042999 188.657204,264.042999 189.530801,265.606278 C190.220482,266.893684 190.220482,266.893684 190.220482,268.456963 C190.220482,271.813414 190.220482,271.813414 189.438843,274.388227 C188.289373,278.204466 188.289373,278.204466 185.714561,278.204466 C183.231706,278.204466 183.231706,278.204466 183.231706,273.928439 C183.231706,271.077754 183.231706,271.077754 184.059325,268.135111 C185.162816,264.042999 185.162816,264.042999 187.231861,264.042999 Z M200.703647,253.835708 C199.646134,253.835708 199.646134,253.835708 198.933463,254.479411 C198.220792,255.123114 198.220792,255.123114 198.220792,256.134647 C198.220792,257.330096 198.220792,257.330096 199.255315,258.157714 C200.289837,258.985332 200.289837,258.985332 201.485286,258.985332 C202.496819,258.985332 202.496819,258.985332 203.186501,258.341629 C203.876183,257.697926 203.876183,257.697926 203.876183,256.686393 C203.876183,255.444965 203.876183,255.444965 202.910628,254.640336 C201.945074,253.835708 201.945074,253.835708 200.703647,253.835708 Z M5.77067664,168.578404 C117.029086,141.236404 226.834832,141.236404 338.093241,168.578404 C330.04789,201.492895 324.488848,224.238588 319.174331,245.988511 L318.785868,247.578325 C318.656504,248.107759 318.527253,248.636734 318.398083,249.165383 C220.015809,225.303523 123.848109,225.303523 25.4658353,249.165383 C25.1429088,247.843761 24.8194797,246.5201 24.4950399,245.192321 L24.1051943,243.596877 C18.9649832,222.560659 13.5216859,200.288706 5.77067664,168.578404 Z M34.9149983,181.740969 C33.2859014,181.41939 31.4149072,181.489568 29.3019596,181.951505 L29.3019596,181.951505 L19.6643794,184.058493 L29.7326719,230.111896 L38.7234346,228.146317 C43.0355726,227.203588 45.9369273,225.439745 47.4275857,222.854734 C48.9182441,220.269724 49.2204863,216.950564 48.3343213,212.897154 L48.3343213,212.897154 L47.7686869,210.309884 C47.2407588,207.895087 46.4523678,206.045565 45.4034902,204.761262 C44.3546126,203.47696 42.9738778,202.637981 41.2612442,202.2443 C41.9000348,201.652822 42.445504,201.047867 42.8976681,200.429416 C43.3498322,199.810966 43.6992506,199.135917 43.9459337,198.404251 C44.1926168,197.672585 44.3187067,196.854339 44.3242072,195.949488 C44.3297077,195.044638 44.1957642,193.966969 43.9223729,192.716449 L43.9223729,192.716449 L43.5547105,191.034723 C43.2247555,189.525475 42.7017658,188.114929 41.9857259,186.803044 C41.2696859,185.491158 40.319504,184.399915 39.1351514,183.52928 C37.9507989,182.658646 36.5440952,182.062548 34.9149983,181.740969 Z M298.43356,178.614508 L289.705708,224.940646 L296.342318,226.190985 L301.588835,198.34325 L301.718965,198.367766 L306.622556,228.127783 L312.868777,229.304572 L321.596629,182.978434 L314.960019,181.728096 L309.701243,209.640895 L309.571114,209.616379 L304.80991,179.815813 L298.43356,178.614508 Z M53.9689799,176.999986 L47.3458081,178.319656 L56.5576249,224.551993 L63.1807967,223.232322 L53.9689799,176.999986 Z M285.049397,176.134976 L276.875474,222.562053 L283.526544,223.733037 L291.700467,177.30596 L285.049397,176.134976 Z M265.095915,172.71267 L246.374239,217.239173 L253.020528,218.436997 L256.772055,208.819866 L265.829252,210.452195 L265.987306,220.773929 L272.633595,221.971754 L270.634489,173.710857 L265.095915,172.71267 Z M75.96207,172.721582 C74.5116572,172.48473 73.0958096,172.495071 71.7144847,172.752605 C70.3331597,173.010139 69.008678,173.510705 67.7409998,174.254318 C66.4733216,174.997932 65.3829435,175.950582 64.4698328,177.112299 C63.556722,178.274016 62.9030359,179.652509 62.5087548,181.24782 C62.1144736,182.843131 62.0959149,184.598942 62.453078,186.515305 L62.453078,186.515305 L67.1377053,211.650737 C67.5031745,213.611667 68.1550653,215.254008 69.0933972,216.577809 C70.0317291,217.90161 71.1360154,218.940818 72.4062892,219.695464 C73.676563,220.450111 75.036886,220.945853 76.4872988,221.182705 C77.9377116,221.419557 79.3535592,221.409216 80.7348841,221.151681 C82.1162091,220.894147 83.4406908,220.393581 84.708369,219.649968 C85.9760472,218.906355 87.0664253,217.953704 87.979536,216.791987 C88.8926468,215.630271 89.5484094,214.262919 89.9468436,212.689891 C90.3452778,211.116864 90.36176,209.349911 89.9962908,207.388981 L89.9962908,207.388981 L87.205449,192.414681 L74.9741006,194.695095 L76.095421,200.711554 L81.5092965,199.702191 L83.178818,208.660031 C83.4861443,210.308995 83.2557611,211.608568 82.4876614,212.558788 C81.7195616,213.509008 80.7117027,214.100415 79.4640544,214.333027 C78.216406,214.565639 77.0631922,214.377142 76.0043784,213.767532 C74.9455645,213.157921 74.2625046,212.028651 73.9551782,210.379687 L73.9551782,210.379687 L69.2705508,185.244255 C68.9632245,183.595291 69.1936077,182.295719 69.9617074,181.345498 C70.7298072,180.395278 71.7376661,179.803871 72.9853144,179.571259 C74.2329627,179.338648 75.3861766,179.527144 76.4449904,180.136755 C77.5038043,180.746365 78.1868642,181.875635 78.4941906,183.524599 L78.4941906,183.524599 L78.9427187,185.931183 L85.7601916,184.660133 L85.3116635,182.253549 C84.9545004,180.337186 84.3046861,178.705987 83.3622012,177.359902 C82.4197162,176.013818 81.3133534,174.963469 80.0430796,174.208822 C78.7728057,173.454176 77.4124828,172.958434 75.96207,172.721582 Z M234.056353,168.466944 L233.318913,174.780128 L241.078868,175.686564 L236.346965,216.196161 L243.054723,216.97969 L247.786626,176.470094 L255.546581,177.37653 L256.284021,171.063346 L234.056353,168.466944 Z M134.561533,165.499914 L128.037176,166.130252 L121.870214,191.803249 L121.738408,191.815983 L110.704791,167.804785 L104.246336,168.428755 L108.779673,215.351408 L115.501738,214.70197 L112.744807,186.166143 L112.876613,186.153409 L121.415189,205.6829 L124.776222,205.358181 L129.484068,184.548913 L129.615874,184.536179 L132.372804,213.072006 L139.09487,212.422567 L134.561533,165.499914 Z M205.772986,165.618102 L202.022058,212.609772 L208.75401,213.147124 L211.008782,184.899322 L211.140781,184.909859 L219.181937,213.979493 L225.517892,214.485236 L229.268821,167.493566 L222.536868,166.956214 L220.276828,195.270015 L220.144829,195.259479 L212.24094,166.134381 L205.772986,165.618102 Z M158.403151,164.775279 C157.029698,164.373027 155.660106,164.213768 154.294335,164.297495 C152.928563,164.381223 151.588681,164.706584 150.274647,165.27359 C148.960614,165.840596 147.79295,166.630787 146.771619,167.644188 C145.750288,168.657588 144.95377,169.911469 144.382042,171.405869 C143.810314,172.900268 143.582523,174.594671 143.698661,176.489128 L143.698661,176.489128 L145.221955,202.073523 C145.340794,204.012037 145.774525,205.676942 146.523161,207.068286 C147.271797,208.45963 148.214836,209.595813 149.352305,210.47687 C150.489775,211.357927 151.745217,211.999571 153.11867,212.401823 C154.492122,212.804074 155.861714,212.963334 157.227486,212.879606 C158.593257,212.795879 159.93314,212.470517 161.247173,211.903511 C162.561206,211.336506 163.728871,210.546314 164.750202,209.532914 C165.771533,208.519513 166.568725,207.276646 167.141804,205.804276 C167.714882,204.331905 167.941998,202.626488 167.823159,200.687974 L167.823159,200.687974 L166.299865,175.103579 C166.183727,173.209121 165.750671,171.555231 165.000685,170.141859 C164.250698,168.728486 163.306984,167.581289 162.169515,166.700232 C161.032046,165.819175 159.776604,165.17753 158.403151,164.775279 Z M174.384197,164.618403 L174.340362,201.72435 C174.338509,203.292846 174.628107,204.749628 175.209165,206.094742 C175.790222,207.439855 176.584357,208.617149 177.591591,209.626659 C178.598825,210.636168 179.774365,211.432998 181.118244,212.01717 C182.462123,212.601342 183.895963,212.894324 185.419806,212.896124 C186.943649,212.897923 188.378177,212.60833 189.723433,212.027333 C191.068688,211.446337 192.246107,210.652287 193.255724,209.645159 C194.26534,208.638032 195.062254,207.462617 195.646488,206.11888 C196.230722,204.775143 196.523761,203.319048 196.525614,201.750553 L196.525614,201.750553 L196.569449,164.644605 L189.712189,164.636506 L189.669149,201.070244 C189.667137,202.773183 189.26229,204.027484 188.454597,204.833186 C187.646903,205.638889 186.638017,206.041019 185.427906,206.03959 C184.217795,206.038161 183.209861,205.633648 182.404074,204.82604 C181.598286,204.018432 181.196404,202.763178 181.198416,201.06024 L181.198416,201.06024 L181.241457,164.626502 L174.384197,164.618403 Z M172.308985,0.313315513 L303.276809,34.1276113 L303.277348,156.459516 C301.654382,156.145187 300.031652,155.836668 298.40915,155.53396 L298.409157,39.8111741 L172.652254,7.49320898 L46.8935362,39.8111636 L46.8934562,155.267057 C45.0430409,155.608398 43.192333,155.957297 41.3413197,156.313755 L41.3411608,34.1276113 L172.308985,0.313315513 Z M172.652241,15.0689399 L291.051821,45.4961642 L291.051838,154.200874 C288.055234,153.674034 285.059362,153.167031 282.064166,152.679865 C266.745347,126.161819 260.438888,114.641602 244.216134,95.5786546 C240.456908,99.4580331 240.039421,103.964332 240.293224,105.102588 C240.413446,105.641761 238.240914,107.39084 235.920735,109.08262 L235.403582,109.457112 C233.159606,111.071364 230.926064,112.545439 230.618435,112.747785 L230.582503,112.771391 C230.582503,112.771391 224.677863,104.219611 218.732899,96.0978978 L218.166778,95.3259889 C214.865882,90.8341248 211.609999,86.5630028 209.404673,84.05272 C206.947309,81.2555477 202.956438,75.8385734 199.00196,70.2706924 L198.394078,69.4132377 C192.423556,60.9764409 186.720577,52.4840384 186.720577,52.4840384 L186.720577,52.4840384 L173.390406,35.1968849 L151.962451,74.9711508 L148.960956,82.5909965 L141.183183,92.9052393 L126.819409,78.1935867 C93.8521536,107.339656 67.2478528,144.037967 61.0825789,152.800241 C58.8069393,153.169407 56.5292748,153.553658 54.2511926,153.949375 L54.2508725,45.4961747 L172.652241,15.0689399 Z M95.3699172,123.764041 C95.8701665,123.760544 94.7206967,134.321321 94.7206967,134.321321 L94.7206967,134.321321 L99.6183574,128.630041 L95.8002036,147.998852 C84.7751681,149.240852 73.7437768,150.752404 62.703271,152.533507 C77.3368744,141.506362 87.7148809,131.300137 92.4680856,126.554541 L93.88566,125.138061 C94.7774816,124.249662 95.2802034,123.76467 95.3699172,123.764041 Z M175.303124,50.9436336 L183.849661,64.2704955 L207.440459,89.2981393 L227.270191,117.576195 C225.757029,126.492096 230.794466,138.095947 233.407756,143.340629 L233.611478,143.746465 C234.371282,145.248854 234.880601,146.130509 234.880601,146.130509 C237.724269,139.637863 235.143093,132.833421 234.898773,132.219149 L234.882685,132.179246 L234.882685,132.179246 C235.38487,132.696705 235.945439,133.310468 236.508847,133.944781 L236.846806,134.327269 L236.846806,134.327269 L237.18288,134.711296 C238.5757,136.3099 239.852629,137.860192 240.178387,138.257446 L240.237879,138.330082 C240.251337,138.346538 240.25828,138.355049 240.25828,138.355049 C239.798492,137.040197 240.456908,133.265244 240.456908,133.265244 L240.456908,133.265244 L251.66102,142.420249 L260.853099,142.540893 L252.146556,134.123744 L258.180812,136.529643 C257.552138,135.844841 256.910588,135.133799 256.267316,134.411459 L255.784714,133.867819 C255.623855,133.686056 255.463063,133.503819 255.302512,133.321344 L254.582247,132.499377 C250.197759,127.476014 246.193222,122.536613 246.193222,122.536613 L246.193222,122.536613 L243.5522,111.528226 L246.193222,108.155422 C259.636343,134.133742 273.797065,147.371401 280.010761,152.350033 C244.227913,146.63667 208.539995,143.756175 172.852886,143.707458 L174.280556,131.670636 L177.84851,126.745187 L181.245423,141.233036 L193.928212,118.146197 L201.029176,133.550245 L198.036877,112.650746 C198.036877,112.650746 205.235316,115.049651 208.943046,118.226627 C210.333444,119.417992 212.790953,121.927024 215.319715,124.597936 L215.826122,125.133935 L215.826122,125.133935 L216.332659,125.672195 C216.416994,125.761979 216.501261,125.851773 216.585423,125.941531 L217.088835,126.479332 C220.265374,129.878471 223.183414,133.104646 223.819079,133.80896 L223.900185,133.898868 C223.930959,133.933001 223.946844,133.950645 223.946844,133.950645 L223.946844,133.950645 L217.677177,118.539603 L194.555363,97.7869762 L194.200406,108.155422 L188.225003,114.983209 L187.042428,105.19176 L180.848166,107.309161 L180.233889,90.3507201 L174.460792,94.3512265 L167.575009,82.1486328 L172.910388,58.4201045 L175.303124,50.9436336 Z M142.266444,115.128332 L147.473082,119.803749 L147.279971,127.15433 L141.745263,144.382112 C127.373599,145.025017 112.997642,146.126982 98.6112602,147.688006 C99.3359923,146.721715 100.129741,145.377564 100.93519,143.511296 C103.793232,136.893325 109.976459,129.499033 110.432569,129.306701 C110.661543,129.210535 112.068954,131.037689 113.419121,132.888885 L113.754755,133.351086 C114.975797,135.039598 116.062212,136.615318 116.062212,136.615318 L116.062212,136.615318 L119.376363,129.806764 C119.376363,129.806764 122.186587,142.415003 122.521312,143.165098 C122.683276,143.52974 123.608268,140.666483 124.519953,137.613727 L124.701882,137.001549 C125.608343,133.93703 126.44974,130.885572 126.44974,130.885572 L126.44974,130.885572 L131.17452,144.611086 C131.106472,130.098759 138.326981,121.377375 138.326981,121.377375 L138.326981,121.377375 L144.780564,124.911039 L142.266444,115.128332 Z M168.573668,127.000465 L171.126411,135.463074 L171.126023,143.70731 C162.191735,143.717984 153.257403,143.90614 144.321552,144.271779 L149.122801,134.679758 L155.749264,141.229539 L168.573668,127.000465 Z" id="Combined-Shape" fill="url(#radialGradient-3)" fill-rule="nonzero"></path>
            <path d="M34.1680694,206.374898 C35.3754681,206.110934 36.3786796,206.049746 37.177734,206.191332 C37.9767885,206.332917 38.6447665,206.649995 39.181688,207.142575 C39.7186095,207.635154 40.1460187,208.298507 40.4639286,209.132652 C40.7818385,209.966798 41.0680575,210.965995 41.3225943,212.130272 C41.5677038,213.251428 41.7508345,214.295753 41.8719921,215.263278 C41.9931496,216.230802 41.9351014,217.101946 41.6978456,217.876733 C41.4605897,218.651521 41.0070793,219.31544 40.3373008,219.86851 C39.6675222,220.42158 38.6642666,220.844231 37.3275038,221.136477 L37.3275038,221.136477 L34.481507,221.758675 L31.2573908,207.011237 Z M154.301233,170.72489 C155.534834,170.649265 156.626836,170.969263 157.577273,171.684895 C158.52771,172.400527 159.052887,173.573383 159.15282,175.203497 L159.15282,175.203497 L160.676114,200.480604 C160.776047,202.110718 160.398066,203.338941 159.54216,204.16531 C158.686254,204.991678 157.641517,205.442668 156.407916,205.518293 C155.174316,205.593918 154.082314,205.273919 153.131877,204.558287 C152.18144,203.842655 151.656263,202.6698 151.55633,201.039685 L151.55633,201.039685 L150.033036,175.762579 C149.933103,174.132464 150.311084,172.904241 151.16699,172.077873 C152.022896,171.251504 153.067633,170.800515 154.301233,170.72489 Z M264.584518,186.068081 L264.715578,186.087005 L265.550826,203.466812 L258.866783,202.501669 L264.584518,186.068081 Z M29.9297382,187.918341 C32.1289285,187.43755 33.7620601,187.622692 34.8291819,188.473773 C35.8963037,189.324854 36.6561081,190.785285 37.1086179,192.855112 C37.570555,194.968059 37.5444098,196.656794 37.0301815,197.921367 C36.5159531,199.185939 35.1592641,200.058608 32.9600738,200.5394 L32.9600738,200.5394 L29.9847134,201.18988 L27.2131048,188.512257 Z M127.404377,83.8408159 L139.684392,96.2951898 L135.915971,101.820365 L133.412885,97.3145496 C133.412885,97.3145496 133.440472,112.393382 127.176322,120.920685 L124.526105,104.540989 L116.340041,109.690242 L117.044436,97.7236923 L127.404377,83.8408159" id="Fillers" fill="url(#radialGradient-4)"></path>
        </g>
    </g>
</svg>